<svg width="160" height="160" viewBox="0 0 160 160" fill="none" xmlns="http://www.w3.org/2000/svg">
<path d="M142.612 78.3305C142.612 66.9799 133.41 57.7783 122.06 57.7783C121.513 57.7783 120.973 57.8061 120.437 57.8483C116.985 51.3474 110.149 46.918 102.276 46.918C90.9251 46.918 81.7239 56.1196 81.7239 67.4699C81.7239 78.8202 90.9255 88.022 102.276 88.022C102.823 88.022 103.363 87.9945 103.899 87.9526C104.549 89.1767 105.317 90.3292 106.191 91.3904C103.265 94.9414 101.508 99.4907 101.508 104.451C101.508 115.802 110.709 125.003 122.06 125.003C133.41 125.003 142.612 115.801 142.612 104.451C142.612 99.4911 140.855 94.9414 137.929 91.3904C140.854 87.8398 142.612 83.2908 142.612 78.3305Z" fill="#006098"/>
<path d="M57.7243 88.0226C69.0749 88.0226 78.2764 78.8208 78.2764 67.4705C78.2764 56.1202 69.0746 46.9186 57.7243 46.9186C49.8508 46.9186 43.0146 51.348 39.5634 57.8489C39.0274 57.8064 38.4871 57.7789 37.9402 57.7789C26.5896 57.7789 17.3878 66.9808 17.3878 78.3311C17.3878 83.2914 19.1453 87.8401 22.0712 91.3914C19.1456 94.9423 17.3878 99.4917 17.3878 104.452C17.3878 115.803 26.5896 125.004 37.9402 125.004C49.2908 125.004 58.4921 115.802 58.4921 104.452C58.4921 99.492 56.7349 94.9423 53.809 91.3914C54.6836 90.3301 55.4508 89.1773 56.1011 87.9536C56.6371 87.9948 57.1774 88.0226 57.7243 88.0226Z" fill="#006098"/>
<path d="M127.965 109.511C127.965 136.001 106.49 157.476 80.0002 157.476C53.5102 157.476 32.0349 136.001 32.0349 109.511V101.403C32.0349 74.9136 53.5096 53.4387 79.9995 53.4387C106.489 53.4387 127.965 74.9136 127.965 101.403V109.511Z" fill="#EED898"/>
<path d="M113.39 116.129C118.384 116.129 122.432 112.081 122.432 107.087C122.432 102.093 118.384 98.0448 113.39 98.0448C108.396 98.0448 104.348 102.093 104.348 107.087C104.348 112.081 108.396 116.129 113.39 116.129Z" fill="#EE9BAC"/>
<path d="M46.608 116.129C51.6019 116.129 55.6502 112.081 55.6502 107.087C55.6502 102.093 51.6019 98.0448 46.608 98.0448C41.6142 98.0448 37.5659 102.093 37.5659 107.087C37.5659 112.081 41.6142 116.129 46.608 116.129Z" fill="#EE9BAC"/>
<path d="M80.0002 146.647C61.9314 146.647 47.2312 131.947 47.2312 113.878C47.2312 110 50.3752 106.857 54.2533 106.857C58.1314 106.857 61.2752 110 61.2752 113.878C61.2752 124.204 69.6755 132.603 80.0002 132.603C90.3248 132.603 98.7254 124.204 98.7254 113.878C98.7254 110 101.869 106.857 105.747 106.857C109.625 106.857 112.769 110 112.769 113.878C112.769 131.947 98.0686 146.647 80.0002 146.647Z" fill="#00BCB4"/>
<path d="M80.0002 140.796C65.158 140.796 53.0833 128.721 53.0833 113.879C53.0833 113.232 53.6074 112.709 54.2533 112.709C54.8999 112.709 55.4233 113.232 55.4233 113.879C55.4233 127.43 66.4483 138.456 79.9998 138.456C93.5514 138.456 104.576 127.431 104.576 113.879C104.576 113.232 105.1 112.709 105.746 112.709C106.393 112.709 106.916 113.233 106.916 113.879C106.917 128.721 94.8423 140.796 80.0002 140.796Z" fill="#008780"/>
<path d="M54.4455 92.3733C56.848 92.3733 58.7955 90.4257 58.7955 88.0233C58.7955 85.6208 56.848 83.6733 54.4455 83.6733C52.0431 83.6733 50.0955 85.6208 50.0955 88.0233C50.0955 90.4257 52.0431 92.3733 54.4455 92.3733Z" fill="#1E252B"/>
<path d="M105.556 92.3733C107.958 92.3733 109.906 90.4257 109.906 88.0233C109.906 85.6208 107.958 83.6733 105.556 83.6733C103.154 83.6733 101.206 85.6208 101.206 88.0233C101.206 90.4257 103.154 92.3733 105.556 92.3733Z" fill="#1E252B"/>
<path d="M80.0008 113.717C86.896 113.717 92.4858 108.127 92.4858 101.232C92.4858 94.3364 86.896 88.7467 80.0008 88.7467C73.1055 88.7467 67.5158 94.3364 67.5158 101.232C67.5158 108.127 73.1055 113.717 80.0008 113.717Z" fill="#D85C72"/>
<path d="M70.6958 22.7275C76.2751 22.7275 80.798 18.2046 80.798 12.6253C80.798 7.04603 76.2751 2.52313 70.6958 2.52313C65.1165 2.52313 60.5936 7.04603 60.5936 12.6253C60.5936 18.2046 65.1165 22.7275 70.6958 22.7275Z" fill="#EE9BAC"/>
<path d="M70.6958 18.119C73.7299 18.119 76.1895 15.6594 76.1895 12.6253C76.1895 9.59119 73.7299 7.13156 70.6958 7.13156C67.6617 7.13156 65.2021 9.59119 65.2021 12.6253C65.2021 15.6594 67.6617 18.119 70.6958 18.119Z" fill="#D85C72"/>
<path d="M97.4861 29.9031H62.5118V49.8115H97.4861V29.9031Z" fill="#65513C"/>
<path d="M97.4861 43.5052H62.5118V49.8111H97.4861V43.5052Z" fill="#FFB819"/>
<path d="M102.534 49.8115H57.464V59.0246H102.534V49.8115Z" fill="#65513C"/>
<path d="M80.0002 116.238C88.2751 116.238 95.0076 109.505 95.0076 101.23C95.0076 92.9548 88.2755 86.2223 80.0002 86.2223C71.7252 86.2223 64.9927 92.9548 64.9927 101.23C64.9927 109.505 71.7245 116.238 80.0002 116.238ZM80.0002 91.2705C85.4917 91.2705 89.9598 95.7386 89.9598 101.23C89.9598 106.722 85.4923 111.19 80.0002 111.19C74.5086 111.19 70.0405 106.723 70.0405 101.23C70.0405 95.7383 74.508 91.2705 80.0002 91.2705ZM105.654 111.597C104.26 111.597 103.13 112.727 103.13 114.121C103.13 126.875 92.7539 137.251 79.9998 137.251C67.2458 137.251 56.8696 126.875 56.8696 114.121C56.8696 112.727 55.7396 111.597 54.3458 111.597C52.9521 111.597 51.8221 112.727 51.8221 114.121C51.8221 129.658 64.4627 142.299 80.0002 142.299C95.5376 142.299 108.178 129.658 108.178 114.121C108.178 112.727 107.048 111.597 105.654 111.597ZM145.136 78.3305C145.136 65.6064 134.784 55.2543 122.059 55.2543C121.991 55.2543 121.923 55.2546 121.854 55.2552C117.65 48.5165 110.29 44.394 102.275 44.394C101.518 44.394 100.762 44.433 100.011 44.5065V29.9043C100.011 28.5106 98.8811 27.3806 97.4873 27.3806H90.087V23.5634C90.087 18.8056 87.4311 14.5106 83.3142 12.3475C83.1655 5.51405 77.5642 0 70.6958 0C63.7339 0 58.0702 5.66374 58.0702 12.6253C58.0702 19.5872 63.7339 25.2512 70.6958 25.2512C75.8595 25.2512 80.3067 22.1334 82.2605 17.6825C83.982 19.1018 85.0389 21.2387 85.0389 23.5634V27.3806H62.5124C61.1186 27.3806 59.9886 28.5106 59.9886 29.9043V44.5068C59.2371 44.4334 58.4814 44.3943 57.7243 44.3943C49.7096 44.3943 42.3496 48.5168 38.1465 55.2555C38.0771 55.2549 38.0084 55.2546 37.9406 55.2546C25.2162 55.2546 14.864 65.6064 14.864 78.3308C14.864 82.9989 16.2912 87.5658 18.9153 91.3911C16.2912 95.2161 14.864 99.7832 14.864 104.451C14.864 115.249 22.2371 124.459 32.5981 126.901C39.6999 146.199 58.2683 160 80.0002 160C101.732 160 120.3 146.199 127.402 126.901C137.763 124.458 145.136 115.25 145.136 104.451C145.136 99.7832 143.709 95.2164 141.085 91.3911C143.709 87.5658 145.136 82.9986 145.136 78.3305ZM70.6958 20.2034C66.5177 20.2034 63.118 16.804 63.118 12.6253C63.1183 8.44717 66.5174 5.0478 70.6958 5.0478C74.8739 5.0478 78.2733 8.44686 78.2733 12.6253C78.2733 16.8037 74.8742 20.2034 70.6958 20.2034ZM65.0364 32.4284H94.9639V47.2874H65.0364V32.4284ZM59.9889 52.3352H100.011V56.5005H59.9889V52.3352V52.3352ZM30.8393 121.034C24.319 118.262 19.9118 111.832 19.9118 104.451C19.9118 100.279 21.3703 96.2104 24.019 92.9961C24.7868 92.0639 24.7868 90.7186 24.019 89.7864C21.3703 86.5717 19.9118 82.5036 19.9118 78.3308C19.9118 68.3899 27.9993 60.3024 37.9406 60.3024C38.3681 60.3024 38.834 60.323 39.3652 60.3646C40.3681 60.4414 41.3215 59.9199 41.7924 59.0321C44.4921 53.9477 49.3824 50.5208 54.949 49.6583C54.9458 49.7093 54.9411 49.7596 54.9411 49.8115V57.5708C39.228 66.5677 29.5112 83.2542 29.5112 101.404V109.511C29.5112 113.474 29.9715 117.331 30.8393 121.034ZM125.441 109.511C125.441 134.567 105.056 154.952 80.0002 154.952C54.944 154.952 34.559 134.567 34.559 109.511V101.403C34.559 84.7955 43.598 69.5455 58.1602 61.5483H101.834C116.408 69.5471 125.441 84.763 125.441 101.403V109.511H125.441ZM135.981 92.9958C138.63 96.2101 140.088 100.279 140.088 104.451C140.088 111.831 135.681 118.261 129.161 121.033C130.028 117.331 130.488 113.474 130.488 109.511V101.403C130.488 83.2195 120.783 66.5639 105.059 57.5661V49.8112C105.059 49.7593 105.054 49.709 105.051 49.658C110.618 50.5208 115.508 53.9474 118.208 59.0318C118.679 59.9199 119.631 60.4396 120.635 60.3643C121.166 60.3221 121.632 60.3021 122.059 60.3021C132 60.3021 140.088 68.3896 140.088 78.3305C140.088 82.503 138.629 86.5711 135.981 89.7861C135.213 90.7183 135.213 92.0639 135.981 92.9958Z" fill="#022A3A"/>
</svg>
